<?xml version="1.0" standalone="no"?>
<!DOCTYPE svg PUBLIC "-//W3C//DTD SVG 20010904//EN"
 "http://www.w3.org/TR/2001/REC-SVG-20010904/DTD/svg10.dtd">
<svg version="1.0" xmlns="http://www.w3.org/2000/svg"
 width="225.000000pt" height="225.000000pt" viewBox="0 0 225.000000 225.000000"
 preserveAspectRatio="xMidYMid meet">

<g transform="translate(0.000000,225.000000) scale(0.100000,-0.100000)"
fill="#fff" stroke="none">
<path d="M883 1851 c-40 -71 -73 -132 -73 -136 0 -4 34 -58 76 -121 l77 -114
161 0 161 0 69 114 c44 76 66 121 62 133 -4 10 -39 70 -79 133 l-73 115 -155
3 -154 2 -72 -129z"/>
<path d="M735 1617 c-8 -20 -15 -42 -15 -48 0 -7 51 -93 113 -191 l112 -178
185 3 184 2 99 172 c64 113 96 179 92 190 -3 10 -16 30 -28 46 l-23 27 -70
-122 -70 -123 -185 -3 -185 -2 -97 132 -96 132 -16 -37z"/>
<path d="M624 1422 c-28 -42 -90 -137 -138 -210 l-87 -134 93 -124 92 -124
567 0 566 0 56 125 57 126 -133 199 -133 199 -105 -177 -105 -177 -224 0 -223
0 -101 161 c-56 89 -108 174 -116 188 l-15 26 -51 -78z"/>
<path d="M500 730 c0 -6 7 -13 15 -16 11 -5 15 -23 15 -78 0 -81 4 -91 43
-105 43 -17 66 -13 92 14 22 21 25 33 25 95 0 40 4 70 10 70 6 0 10 7 10 15 0
11 -11 15 -40 15 -40 0 -54 -15 -25 -26 11 -5 15 -23 15 -73 0 -71 -10 -91
-46 -91 -28 0 -34 17 -34 96 0 48 4 66 15 70 32 13 13 24 -40 24 -31 0 -55 -4
-55 -10z"/>
<path d="M730 725 c0 -8 7 -15 15 -15 12 0 15 -15 15 -75 0 -58 -4 -77 -15
-81 -30 -12 -14 -24 30 -24 25 0 45 5 45 10 0 6 -7 10 -15 10 -11 0 -15 12
-15 49 0 27 -3 56 -6 65 -3 9 -2 16 3 16 5 0 25 -34 46 -75 34 -68 39 -75 67
-75 l30 0 0 90 c0 50 4 90 9 90 5 0 11 7 15 15 4 12 -4 15 -39 15 -33 0 -45
-4 -45 -15 0 -8 7 -15 15 -15 12 0 15 -13 15 -55 0 -30 -2 -55 -5 -55 -3 0
-21 32 -40 70 l-35 70 -45 0 c-33 0 -45 -4 -45 -15z"/>
<path d="M970 725 c0 -8 7 -15 15 -15 12 0 15 -15 15 -75 0 -58 -4 -77 -15
-81 -32 -13 -13 -24 40 -24 30 0 55 5 55 10 0 6 -7 10 -15 10 -12 0 -15 16
-15 80 0 64 3 80 15 80 8 0 15 7 15 15 0 12 -13 15 -55 15 -42 0 -55 -3 -55
-15z"/>
<path d="M1100 700 c0 -45 14 -54 24 -15 4 16 13 25 26 25 18 0 20 -7 20 -75
0 -58 -4 -77 -15 -81 -32 -13 -13 -24 40 -24 30 0 55 5 55 10 0 6 -7 10 -15
10 -12 0 -15 16 -15 81 0 71 2 80 18 77 9 -2 18 -13 20 -26 6 -37 27 -25 27
16 l0 37 -93 3 -92 3 0 -41z"/>
<path d="M1300 725 c0 -8 7 -15 15 -15 12 0 15 -16 15 -80 0 -64 -3 -80 -15
-80 -8 0 -15 -4 -15 -10 0 -6 38 -10 95 -10 l95 0 0 40 c0 22 -4 40 -10 40 -5
0 -10 -6 -10 -14 0 -24 -29 -46 -61 -46 -27 0 -29 2 -29 40 0 44 13 51 32 20
20 -31 28 -24 28 25 0 44 -12 60 -24 30 -10 -28 -36 -17 -36 16 0 29 2 30 38
27 27 -2 40 -9 47 -25 15 -35 25 -28 25 17 l0 40 -95 0 c-78 0 -95 -3 -95 -15z"/>
<path d="M1520 725 c0 -8 7 -15 15 -15 12 0 15 -16 15 -80 0 -64 -3 -80 -15
-80 -8 0 -15 -4 -15 -10 0 -15 140 -12 170 3 15 7 31 29 39 54 13 35 13 46 0
79 -18 47 -54 63 -146 63 -50 1 -63 -2 -63 -14z m151 -42 c23 -61 -6 -133 -53
-133 -16 0 -18 9 -18 80 l0 80 30 0 c24 0 33 -6 41 -27z"/>
<path d="M518 465 c-9 -21 -9 -29 4 -41 13 -13 14 -12 10 15 -5 35 22 55 40
30 8 -12 9 -11 5 1 -7 27 -46 24 -59 -5z"/>
<path d="M994 476 c-3 -8 -4 -27 -1 -43 3 -23 4 -21 6 10 0 23 5 36 11 32 6
-3 10 -1 10 4 0 16 -20 13 -26 -3z"/>
<path d="M1068 450 c2 -22 8 -40 12 -40 5 0 6 9 3 19 -3 10 0 28 6 40 10 18 9
21 -6 21 -16 0 -18 -7 -15 -40z"/>
<path d="M1253 445 c0 -22 2 -30 4 -17 2 12 2 30 0 40 -3 9 -5 -1 -4 -23z"/>
<path d="M1337 473 c-2 -5 0 -21 4 -38 7 -29 7 -29 8 8 1 35 -3 46 -12 30z"/>
<path d="M1462 448 c-2 -37 10 -50 24 -26 4 6 3 8 -4 4 -7 -4 -12 6 -15 26 -4
33 -4 33 -5 -4z"/>
<path d="M610 435 c0 -14 3 -25 8 -25 4 0 7 11 7 25 0 14 -3 25 -7 25 -5 0 -8
-11 -8 -25z"/>
<path d="M663 444 c-3 -8 -2 -19 3 -24 5 -5 9 1 9 16 0 28 -3 30 -12 8z"/>
<path d="M704 434 c-1 -13 2 -21 7 -18 11 6 12 31 2 37 -5 3 -9 -6 -9 -19z"/>
<path d="M738 435 c2 -14 6 -25 8 -25 2 0 4 11 4 25 0 14 -4 25 -9 25 -4 0 -6
-11 -3 -25z"/>
<path d="M770 435 c0 -14 4 -25 9 -25 4 0 6 11 3 25 -2 14 -6 25 -8 25 -2 0
-4 -11 -4 -25z"/>
<path d="M808 420 c-2 -23 1 -40 7 -40 5 0 10 18 10 40 0 52 -12 52 -17 0z"/>
<path d="M845 435 c0 -14 3 -25 8 -25 4 0 7 11 7 25 0 14 -3 25 -7 25 -5 0 -8
-11 -8 -25z"/>
<path d="M913 444 c-3 -8 -2 -19 3 -24 5 -5 9 1 9 16 0 28 -3 30 -12 8z"/>
<path d="M955 435 c0 -13 3 -21 8 -18 4 2 7 10 7 18 0 8 -3 16 -7 18 -5 3 -8
-5 -8 -18z"/>
<path d="M1122 435 c0 -16 2 -22 5 -12 2 9 2 23 0 30 -3 6 -5 -1 -5 -18z"/>
<path d="M1185 450 c-4 -6 -2 -10 4 -10 5 0 17 -7 25 -16 9 -8 16 -12 16 -7 0
15 -39 43 -45 33z"/>
<path d="M1302 435 c0 -16 2 -22 5 -12 2 9 2 23 0 30 -3 6 -5 -1 -5 -18z"/>
<path d="M1420 435 c0 -14 4 -25 9 -25 4 0 6 11 3 25 -2 14 -6 25 -8 25 -2 0
-4 -11 -4 -25z"/>
<path d="M1512 435 c0 -16 2 -22 5 -12 2 9 2 23 0 30 -3 6 -5 -1 -5 -18z"/>
<path d="M1543 444 c-3 -8 -2 -19 3 -24 5 -5 9 1 9 16 0 28 -3 30 -12 8z"/>
<path d="M1584 436 c0 -13 4 -22 9 -19 10 6 9 31 -2 37 -5 3 -8 -5 -7 -18z"/>
<path d="M1618 435 c-3 -14 -1 -25 3 -25 5 0 9 11 9 25 0 14 -2 25 -4 25 -2 0
-6 -11 -8 -25z"/>
<path d="M1691 448 c-1 -10 5 -18 13 -18 8 0 17 -6 19 -12 3 -8 6 -6 6 5 1 9
-5 17 -13 17 -8 0 -17 6 -19 13 -3 7 -6 5 -6 -5z"/>
<path d="M564 430 c0 -11 3 -20 7 -20 4 0 9 9 12 20 3 12 0 20 -7 20 -6 0 -12
-9 -12 -20z"/>
<path d="M1391 424 c0 -11 3 -14 6 -6 3 7 2 16 -1 19 -3 4 -6 -2 -5 -13z"/>
<path d="M1653 425 c0 -8 4 -15 9 -15 4 0 8 7 8 15 0 8 -4 15 -8 15 -5 0 -9
-7 -9 -15z"/>
<path d="M1150 420 c0 -5 5 -10 11 -10 5 0 7 5 4 10 -3 6 -8 10 -11 10 -2 0
-4 -4 -4 -10z"/>
<path d="M1180 420 c0 -5 5 -10 11 -10 5 0 7 5 4 10 -3 6 -8 10 -11 10 -2 0
-4 -4 -4 -10z"/>
<path d="M812 353 c170 -2 446 -2 615 0 170 1 31 2 -307 2 -338 0 -477 -1
-308 -2z"/>
<path d="M529 284 c-5 -15 -7 -29 -5 -32 3 -2 8 8 12 23 l7 28 13 -29 c13 -31
18 -24 8 14 -8 30 -22 28 -35 -4z"/>
<path d="M592 285 c0 -16 2 -22 5 -12 2 9 2 23 0 30 -3 6 -5 -1 -5 -18z"/>
<path d="M622 280 c0 -19 2 -27 5 -17 2 9 2 25 0 35 -3 9 -5 1 -5 -18z"/>
<path d="M700 295 c0 -8 4 -15 10 -15 5 0 7 7 4 15 -4 8 -8 15 -10 15 -2 0 -4
-7 -4 -15z"/>
<path d="M816 295 c4 -8 8 -15 10 -15 2 0 4 7 4 15 0 8 -4 15 -10 15 -5 0 -7
-7 -4 -15z"/>
<path d="M950 284 c0 -14 -4 -23 -10 -19 -5 3 -10 1 -10 -4 0 -6 7 -11 15 -11
10 0 15 10 15 30 0 17 -2 30 -5 30 -3 0 -5 -12 -5 -26z"/>
<path d="M1086 293 c-8 -21 17 -48 38 -40 18 7 22 27 5 27 -5 0 -7 -4 -4 -10
3 -5 -1 -10 -11 -10 -12 0 -15 6 -12 25 6 28 -6 34 -16 8z"/>
<path d="M1300 287 c0 -14 4 -28 8 -31 9 -5 8 41 -1 51 -4 3 -7 -5 -7 -20z"/>
<path d="M1461 278 c0 -26 2 -29 8 -13 7 18 8 18 18 1 8 -14 11 -15 15 -5 3 8
-5 22 -18 32 l-24 18 1 -33z"/>
<path d="M1642 280 c0 -19 2 -27 5 -17 2 9 2 25 0 35 -3 9 -5 1 -5 -18z"/>
<path d="M668 292 c11 -7 11 -10 -2 -15 -18 -7 -22 -27 -5 -27 5 0 7 5 4 10
-3 6 -2 10 4 10 5 0 12 -6 15 -12 3 -7 4 -2 3 11 -1 14 -9 26 -17 28 -12 4
-12 3 -2 -5z"/>
<path d="M778 292 c11 -7 11 -10 -2 -15 -9 -4 -16 -12 -16 -19 0 -9 3 -9 10 2
9 13 11 13 20 0 9 -12 10 -10 8 9 -2 14 -10 26 -18 28 -12 4 -12 3 -2 -5z"/>
<path d="M886 293 c7 -4 14 -17 17 -28 5 -16 5 -15 4 4 -1 14 -9 26 -17 28
-10 3 -11 2 -4 -4z"/>
<path d="M1194 286 c-7 -18 3 -36 19 -35 9 0 9 2 0 6 -16 6 -17 33 -2 33 5 0
7 -4 4 -10 -3 -5 -1 -10 5 -10 15 0 8 22 -8 28 -7 2 -15 -3 -18 -12z"/>
<path d="M1264 292 c3 -6 -2 -15 -11 -21 -20 -11 -19 -12 13 -16 16 -2 21 3
20 18 -1 11 -7 22 -15 25 -8 3 -11 0 -7 -6z"/>
<path d="M1355 290 c6 -10 4 -12 -9 -7 -13 5 -17 2 -14 -10 2 -10 12 -19 23
-20 20 -3 20 -3 0 6 -17 8 -18 10 -2 10 19 1 23 16 5 27 -7 5 -8 3 -3 -6z"/>
<path d="M1532 288 c-7 -7 -12 -17 -12 -22 0 -6 5 -3 11 7 6 9 15 14 21 11 7
-4 8 -2 4 4 -9 15 -9 15 -24 0z"/>
<path d="M1613 284 c-3 -8 -2 -19 3 -24 5 -5 9 1 9 16 0 28 -3 30 -12 8z"/>
<path d="M732 270 c0 -14 2 -19 5 -12 2 6 2 18 0 25 -3 6 -5 1 -5 -13z"/>
<path d="M1015 280 c3 -5 10 -10 16 -10 5 0 9 5 9 10 0 6 -7 10 -16 10 -8 0
-12 -4 -9 -10z"/>
<path d="M1157 283 c-4 -3 -7 -11 -7 -17 0 -6 5 -5 12 2 6 6 9 14 7 17 -3 3
-9 2 -12 -2z"/>
<path d="M1392 270 c0 -14 2 -19 5 -12 2 6 2 18 0 25 -3 6 -5 1 -5 -13z"/>
<path d="M1582 270 c0 -14 2 -19 5 -12 2 6 2 18 0 25 -3 6 -5 1 -5 -13z"/>
<path d="M1702 270 c0 -14 2 -19 5 -12 2 6 2 18 0 25 -3 6 -5 1 -5 -13z"/>
<path d="M877 273 c-10 -9 -9 -23 1 -23 5 0 9 7 9 15 0 17 -1 18 -10 8z"/>
<path d="M1677 273 c-10 -9 -9 -23 1 -23 5 0 9 7 9 15 0 17 -1 18 -10 8z"/>
<path d="M1545 260 c-3 -5 -1 -10 4 -10 6 0 11 5 11 10 0 6 -2 10 -4 10 -3 0
-8 -4 -11 -10z"/>
</g>
</svg>
